<?xml version="1.0" encoding="utf-8"?>
<!-- Generator: Adobe Illustrator 21.0.0, SVG Export Plug-In . SVG Version: 6.00 Build 0)  -->
<svg version="1.1" xmlns="http://www.w3.org/2000/svg" xmlns:xlink="http://www.w3.org/1999/xlink" x="0px" y="0px"
	 viewBox="0 0 512 512" style="enable-background:new 0 0 512 512;" xml:space="preserve">
<style type="text/css">
	.st0{opacity:0.66;fill:#FF0000;}
	.st1{opacity:0.66;fill:#01A0C6;}
	.st2{stroke:#000000;stroke-miterlimit:10;}
</style>
<g id="Layer_2">
	<path class="st0" d="M3,479.1c0,0,7.6-42.2,110.9-71.8l44-16.9l6.7-16.1c0,0,0.8-14.8,4.2-17.3c3.4-2.6,10.7-3.3,10.7-3.3l3.2-40
		c0,0-21.1-13.6-20.8-51.3c0,0-9.1-7.3-10.1-19s-3-31.6-3-31.6s0-7.7,7.7-4l2.3-85.2c0,0,21.3-49.2,56.9-51.3
		c35.6-2.1,58.5,0.5,64.2,2.6c5.6,2.1,43.8,22,52.4,49.9l1.2,3.7v79.1v2.3c0,0,7-6.1,7.7,0.7s0.7,43.6-11.9,52.4
		c0,0-8,43.6-19.4,49.2l-0.9,41.4c0,0,11.2-0.2,11.2,9.6c0,9.8,3.5,16.2,3.5,16.2s4.2,5.4,4.2,11c0,0,139.9,39.6,157.4,87.8
		c0.2,0.6,0.4,1.2,0.6,1.9V511H3V479.1z"/>
</g>
<g id="Layer_3">
	<path class="st1" d="M29.2,479.1c0,0,7.6-42.2,110.9-71.8l44-16.9l6.7-16.1c0,0,0.8-14.8,4.2-17.3c3.4-2.6,10.7-3.3,10.7-3.3
		l3.2-40c0,0-21.1-13.6-20.8-51.3c0,0-9.1-7.3-10.1-19s-3-31.6-3-31.6s0-7.7,7.7-4l2.3-85.2c0,0,21.3-49.2,56.9-51.3
		c35.6-2.1,58.5,0.5,64.2,2.6c5.6,2.1,43.8,22,52.4,49.9l1.2,3.7v79.1v2.3c0,0,7-6.1,7.7,0.7s0.7,43.6-11.9,52.4
		c0,0-8,43.6-19.4,49.2l-0.9,41.4c0,0,11.2-0.2,11.2,9.6c0,9.8,3.5,16.2,3.5,16.2s4.2,5.4,4.2,11c0,0,139.9,39.6,157.4,87.8
		c0.2,0.6,0.4,1.2,0.6,1.9V511H29.2V479.1z"/>
</g>
<g id="Layer_4">
	<path class="st2" d="M17.4,479.1c0,0,7.6-42.2,110.9-71.8l44-16.9l6.7-16.1c0,0,0.8-14.8,4.2-17.3c3.4-2.6,10.7-3.3,10.7-3.3
		l3.2-40c0,0-21.1-13.6-20.8-51.3c0,0-9.1-7.3-10.1-19c-0.9-11.7-3-31.6-3-31.6s0-7.7,7.7-4l2.3-85.2c0,0,21.3-49.2,56.9-51.3
		c35.6-2.1,58.5,0.5,64.2,2.6c5.6,2.1,43.8,22,52.4,49.9l1.2,3.7v79.1v2.3c0,0,7-6.1,7.7,0.7s0.7,43.6-11.9,52.4
		c0,0-8,43.6-19.4,49.2l-0.9,41.4c0,0,11.2-0.2,11.2,9.6c0,9.8,3.5,16.2,3.5,16.2s4.2,5.4,4.2,11c0,0,139.9,39.6,157.4,87.8
		c0.2,0.6,0.4,1.2,0.6,1.9V511H17.4V479.1z"/>
</g>
</svg>
