<?xml version="1.0" encoding="UTF-8" standalone="no"?> <svg width="128" height="128" viewBox="0 0 128 128" fill="none" xmlns="http://www.w3.org/2000/svg">
<path d="M18.3927 38.5947C18.3927 35.747 20.7012 33.4384 23.549 33.4384H110.855C113.702 33.4384 116.011 35.747 116.011 38.5947V95.8089C116.011 98.6566 113.702 100.965 110.855 100.965H23.549C20.7012 100.965 18.3927 98.6567 18.3927 95.8089V38.5947Z" fill="black"/>
<path d="M13.7079 33.9098C13.7079 31.0621 16.0164 28.7535 18.8641 28.7535H106.17C109.017 28.7535 111.326 31.0621 111.326 33.9098V91.124C111.326 93.9717 109.017 96.2803 106.17 96.2803H18.8641C16.0164 96.2803 13.7079 93.9717 13.7079 91.124V33.9098Z" fill="white"/>
<path fill-rule="evenodd" clip-rule="evenodd" d="M18.8641 27.0348H106.17C109.967 27.0348 113.045 30.1128 113.045 33.9098V91.124C113.045 94.921 109.967 97.999 106.17 97.999H18.8641C15.0672 97.999 11.9891 94.921 11.9891 91.124V33.9098C11.9891 30.1128 15.0672 27.0348 18.8641 27.0348ZM18.8641 28.7535C16.0164 28.7535 13.7079 31.0621 13.7079 33.9098V91.124C13.7079 93.9717 16.0164 96.2803 18.8641 96.2803H106.17C109.017 96.2803 111.326 93.9717 111.326 91.124V33.9098C111.326 31.0621 109.017 28.7535 106.17 28.7535H18.8641Z" fill="black"/>
<path d="M19.7572 44.7613C19.7572 42.8628 21.2962 41.3238 23.1947 41.3238H63.1675C65.066 41.3238 66.605 42.8628 66.605 44.7613V66.4545C66.605 68.353 65.066 69.892 63.1675 69.892H23.1947C21.2962 69.892 19.7572 68.353 19.7572 66.4545V44.7613Z" fill="black"/>
<path fill-rule="evenodd" clip-rule="evenodd" d="M19.0895 74.1437C19.0853 73.1945 19.8513 72.4215 20.8005 72.4173L65.0131 72.2182C65.9624 72.214 66.7353 72.98 66.7396 73.9292C66.7439 74.8785 65.9778 75.6514 65.0286 75.6557L20.816 75.8547C19.8668 75.859 19.0938 75.093 19.0895 74.1437Z" fill="black"/>
<path fill-rule="evenodd" clip-rule="evenodd" d="M19.3633 79.0865C19.3633 78.6119 19.748 78.2272 20.2227 78.2272H54.1873C54.6619 78.2272 55.0467 78.6119 55.0467 79.0865C55.0467 79.5612 54.6619 79.9459 54.1873 79.9459H20.2227C19.748 79.9459 19.3633 79.5612 19.3633 79.0865Z" fill="black"/>
<path fill-rule="evenodd" clip-rule="evenodd" d="M19.3633 87.6319C19.3633 87.1573 19.748 86.7725 20.2227 86.7725H54.1873C54.6619 86.7725 55.0467 87.1573 55.0467 87.6319C55.0467 88.1065 54.6619 88.4913 54.1873 88.4913H20.2227C19.748 88.4913 19.3633 88.1065 19.3633 87.6319Z" fill="black"/>
<path fill-rule="evenodd" clip-rule="evenodd" d="M19.3633 82.2883C19.3633 81.8136 19.748 81.4289 20.2227 81.4289H37.6442C38.1188 81.4289 38.5036 81.8136 38.5036 82.2883C38.5036 82.7629 38.1188 83.1476 37.6442 83.1476H20.2227C19.748 83.1476 19.3633 82.7629 19.3633 82.2883Z" fill="black"/>
<path fill-rule="evenodd" clip-rule="evenodd" d="M19.3633 90.2671C19.3633 89.7925 19.748 89.4077 20.2227 89.4077H32.9594C33.434 89.4077 33.8188 89.7925 33.8188 90.2671C33.8188 90.7417 33.434 91.1265 32.9594 91.1265H20.2227C19.748 91.1265 19.3633 90.7417 19.3633 90.2671Z" fill="black"/>
<path fill-rule="evenodd" clip-rule="evenodd" d="M92.4163 42.9339C92.4163 42.4592 92.801 42.0745 93.2756 42.0745H107.403C107.878 42.0745 108.263 42.4592 108.263 42.9339C108.263 43.4085 107.878 43.7932 107.403 43.7932H93.2756C92.801 43.7932 92.4163 43.4085 92.4163 42.9339Z" fill="black"/>
<path fill-rule="evenodd" clip-rule="evenodd" d="M92.4169 46.4395C92.4169 45.9649 92.8016 45.5801 93.2762 45.5801H100.988C101.463 45.5801 101.847 45.9649 101.847 46.4395C101.847 46.9141 101.463 47.2989 100.988 47.2989H93.2762C92.8016 47.2989 92.4169 46.9141 92.4169 46.4395Z" fill="black"/>
<path fill-rule="evenodd" clip-rule="evenodd" d="M92.4163 77.7508C92.4163 77.2762 92.801 76.8914 93.2756 76.8914H107.403C107.878 76.8914 108.263 77.2762 108.263 77.7508C108.263 78.2254 107.878 78.6102 107.403 78.6102H93.2756C92.801 78.6102 92.4163 78.2254 92.4163 77.7508Z" fill="black"/>
<path fill-rule="evenodd" clip-rule="evenodd" d="M92.4169 81.2564C92.4169 80.7818 92.8016 80.397 93.2762 80.397H100.988C101.463 80.397 101.847 80.7818 101.847 81.2564C101.847 81.731 101.463 82.1158 100.988 82.1158H93.2762C92.8016 82.1158 92.4169 81.731 92.4169 81.2564Z" fill="black"/>
<path fill-rule="evenodd" clip-rule="evenodd" d="M92.4163 59.0114C92.4163 58.5367 92.801 58.152 93.2756 58.152H107.403C107.878 58.152 108.263 58.5367 108.263 59.0114C108.263 59.486 107.878 59.8707 107.403 59.8707H93.2756C92.801 59.8707 92.4163 59.486 92.4163 59.0114Z" fill="black"/>
<path fill-rule="evenodd" clip-rule="evenodd" d="M92.4169 62.5169C92.4169 62.0423 92.8016 61.6576 93.2762 61.6576H100.988C101.463 61.6576 101.847 62.0423 101.847 62.5169C101.847 62.9916 101.463 63.3763 100.988 63.3763H93.2762C92.8016 63.3763 92.4169 62.9916 92.4169 62.5169Z" fill="black"/>
<path fill-rule="evenodd" clip-rule="evenodd" d="M73.7405 40.337H87.6776C89.5761 40.337 91.1151 41.876 91.1151 43.7745V52.7977C91.1151 54.6961 89.5761 56.2352 87.6776 56.2352H73.7405C71.842 56.2352 70.303 54.6961 70.303 52.7977V43.7745C70.303 41.876 71.842 40.337 73.7405 40.337ZM73.7405 42.0557C72.7912 42.0557 72.0217 42.8252 72.0217 43.7745V52.7977C72.0217 53.7469 72.7912 54.5164 73.7405 54.5164H87.6776C88.6269 54.5164 89.3964 53.7469 89.3964 52.7977V43.7745C89.3964 42.8252 88.6269 42.0557 87.6776 42.0557H73.7405Z" fill="black"/>
<path d="M47.3784 54.2581L43.2637 51.3188C42.1261 50.5062 40.5459 51.3194 40.5459 52.7174V58.5369C40.5459 59.9275 42.1111 60.7424 43.2503 59.945L47.365 57.0647C48.3368 56.3844 48.3436 54.9476 47.3784 54.2581Z" fill="white"/>
<path fill-rule="evenodd" clip-rule="evenodd" d="M20.719 32.5778H104.539C106.019 32.5778 107.219 33.7779 107.219 35.2583C107.219 36.7387 106.019 37.9388 104.539 37.9388H20.719C19.2386 37.9388 18.0385 36.7387 18.0385 35.2583C18.0385 33.7779 19.2386 32.5778 20.719 32.5778ZM20.719 34.2966C20.1878 34.2966 19.7572 34.7272 19.7572 35.2583C19.7572 35.7895 20.1878 36.2201 20.719 36.2201H104.539C105.07 36.2201 105.5 35.7895 105.5 35.2583C105.5 34.7272 105.07 34.2966 104.539 34.2966H20.719Z" fill="black"/>
<path fill-rule="evenodd" clip-rule="evenodd" d="M73.7405 57.0763H87.6776C89.5761 57.0763 91.1151 58.6153 91.1151 60.5138V69.5369C91.1151 71.4354 89.5761 72.9744 87.6776 72.9744H73.7405C71.842 72.9744 70.303 71.4354 70.303 69.5369V60.5138C70.303 58.6153 71.842 57.0763 73.7405 57.0763ZM73.7405 58.795C72.7912 58.795 72.0217 59.5645 72.0217 60.5138V69.5369C72.0217 70.4862 72.7912 71.2557 73.7405 71.2557H87.6776C88.6269 71.2557 89.3964 70.4862 89.3964 69.5369V60.5138C89.3964 59.5645 88.6269 58.795 87.6776 58.795H73.7405Z" fill="black"/>
<path fill-rule="evenodd" clip-rule="evenodd" d="M73.7405 74.891H87.6776C89.5761 74.891 91.1151 76.43 91.1151 78.3285V87.3517C91.1151 89.2502 89.5761 90.7892 87.6776 90.7892H73.7405C71.842 90.7892 70.303 89.2502 70.303 87.3517V78.3285C70.303 76.43 71.842 74.891 73.7405 74.891ZM73.7405 76.6098C72.7912 76.6098 72.0217 77.3793 72.0217 78.3285V87.3517C72.0217 88.3009 72.7912 89.0705 73.7405 89.0705H87.6776C88.6269 89.0705 89.3964 88.3009 89.3964 87.3517V78.3285C89.3964 77.3793 88.6269 76.6098 87.6776 76.6098H73.7405Z" fill="black"/>
<path fill-rule="evenodd" clip-rule="evenodd" d="M79.9708 48.9737C79.9708 49.3213 80.3621 49.5251 80.6469 49.3257L81.8484 48.4847C82.0913 48.3146 82.093 47.9554 81.8517 47.783L80.6503 46.9248C80.3659 46.7217 79.9708 46.9249 79.9708 47.2744V48.9737ZM81.6493 45.5262L82.8508 46.3845C84.0573 47.2464 84.0488 49.0424 82.834 49.8928L81.6326 50.7338C80.2086 51.7305 78.2521 50.7118 78.2521 48.9737V47.2744C78.2521 45.5269 80.2273 44.5105 81.6493 45.5262Z" fill="black"/>
<path fill-rule="evenodd" clip-rule="evenodd" d="M79.9708 66.3766C79.9708 66.7243 80.3621 66.928 80.6469 66.7286L81.8484 65.8876C82.0913 65.7176 82.093 65.3583 81.8517 65.186L80.6503 64.3277C80.3659 64.1246 79.9708 64.3279 79.9708 64.6774V66.3766ZM81.6493 62.9292L82.8508 63.7874C84.0573 64.6493 84.0488 66.4454 82.834 67.2957L81.6326 68.1367C80.2086 69.1335 78.2521 68.1148 78.2521 66.3766V64.6774C78.2521 62.9299 80.2273 61.9134 81.6493 62.9292Z" fill="black"/>
<path fill-rule="evenodd" clip-rule="evenodd" d="M79.9708 83.9631C79.9708 84.3108 80.3621 84.5145 80.6469 84.3152L81.8484 83.4741C82.0913 83.3041 82.093 82.9449 81.8517 82.7725L80.6503 81.9142C80.3659 81.7111 79.9708 81.9144 79.9708 82.2639V83.9631ZM81.6493 80.5157L82.8508 81.3739C84.0573 82.2358 84.0488 84.0319 82.834 84.8822L81.6326 85.7232C80.2086 86.72 78.2521 85.7013 78.2521 83.9631V82.2639C78.2521 80.5164 80.2273 79.4999 81.6493 80.5157Z" fill="black"/>
</svg>
