<?xml version="1.0" encoding="UTF-8" standalone="no"?> <svg width="128" height="128" viewBox="0 0 128 128" fill="none" xmlns="http://www.w3.org/2000/svg">
<path d="M16.4373 32.8402C16.4373 31.7357 17.3327 30.8402 18.4373 30.8402H114.499C115.603 30.8402 116.499 31.7357 116.499 32.8402V94.7999C116.499 95.9045 115.603 96.7999 114.499 96.7999H18.4373C17.3327 96.7999 16.4373 95.9045 16.4373 94.7999V32.8402Z" fill="black"/>
<path d="M11.5015 27.7323C11.5015 26.6277 12.3969 25.7323 13.5015 25.7323H109.563C110.667 25.7323 111.563 26.6277 111.563 27.7323V89.692C111.563 90.7965 110.667 91.692 109.563 91.692H13.5015C12.3969 91.692 11.5015 90.7965 11.5015 89.692V27.7323Z" fill="white"/>
<path fill-rule="evenodd" clip-rule="evenodd" d="M13.5015 23.7323H109.563C111.772 23.7323 113.563 25.5231 113.563 27.7323V89.692C113.563 91.9011 111.772 93.692 109.563 93.692H13.5015C11.2923 93.692 9.50146 91.9011 9.50146 89.692V27.7323C9.50146 25.5231 11.2923 23.7323 13.5015 23.7323ZM13.5015 25.7323C12.3969 25.7323 11.5015 26.6277 11.5015 27.7323V89.692C11.5015 90.7965 12.3969 91.692 13.5015 91.692H109.563C110.667 91.692 111.563 90.7965 111.563 89.692V27.7323C111.563 26.6277 110.667 25.7323 109.563 25.7323H13.5015Z" fill="black"/>
<path fill-rule="evenodd" clip-rule="evenodd" d="M26.8794 49.5521C26.8794 48.9998 27.3271 48.5521 27.8794 48.5521H95.1852C95.7375 48.5521 96.1852 48.9998 96.1852 49.5521C96.1852 50.1044 95.7375 50.5521 95.1852 50.5521H27.8794C27.3271 50.5521 26.8794 50.1044 26.8794 49.5521Z" fill="black"/>
<path fill-rule="evenodd" clip-rule="evenodd" d="M47.5197 38.2961C47.5197 37.7438 47.9674 37.2961 48.5197 37.2961H72.7497C73.302 37.2961 73.7497 37.7438 73.7497 38.2961C73.7497 38.8484 73.302 39.2961 72.7497 39.2961H48.5197C47.9674 39.2961 47.5197 38.8484 47.5197 38.2961Z" fill="black"/>
<path fill-rule="evenodd" clip-rule="evenodd" d="M26.8794 54.7123C26.8794 54.16 27.3271 53.7123 27.8794 53.7123H95.1852C95.7375 53.7123 96.1852 54.16 96.1852 54.7123C96.1852 55.2646 95.7375 55.7123 95.1852 55.7123H27.8794C27.3271 55.7123 26.8794 55.2646 26.8794 54.7123Z" fill="black"/>
<path fill-rule="evenodd" clip-rule="evenodd" d="M26.8794 60.7889C26.8794 60.2367 27.3271 59.7889 27.8794 59.7889H95.1852C95.7375 59.7889 96.1852 60.2367 96.1852 60.7889C96.1852 61.3412 95.7375 61.7889 95.1852 61.7889H27.8794C27.3271 61.7889 26.8794 61.3412 26.8794 60.7889Z" fill="black"/>
<path fill-rule="evenodd" clip-rule="evenodd" d="M26.8794 66.8466C26.8794 66.2943 27.3271 65.8466 27.8794 65.8466H95.1852C95.7375 65.8466 96.1852 66.2943 96.1852 66.8466C96.1852 67.3988 95.7375 67.8466 95.1852 67.8466H27.8794C27.3271 67.8466 26.8794 67.3988 26.8794 66.8466Z" fill="black"/>
<path fill-rule="evenodd" clip-rule="evenodd" d="M26.8794 72.455C26.8794 71.9027 27.3271 71.455 27.8794 71.455H59.2888C59.8411 71.455 60.2888 71.9027 60.2888 72.455C60.2888 73.0072 59.8411 73.455 59.2888 73.455H27.8794C27.3271 73.455 26.8794 73.0072 26.8794 72.455Z" fill="black"/>
<path d="M89.4539 80.1977H100.223V99.2677L94.8383 93.8832L89.4539 99.2677V80.1977Z" fill="white"/>
<path fill-rule="evenodd" clip-rule="evenodd" d="M87.4539 80.1977C87.4539 79.0932 88.3493 78.1977 89.4539 78.1977H100.223C101.327 78.1977 102.223 79.0932 102.223 80.1977V99.2677C102.223 100.077 101.736 100.806 100.988 101.115C100.241 101.425 99.3806 101.254 98.8086 100.682L94.8383 96.7117L90.8681 100.682C90.2961 101.254 89.4358 101.425 88.6885 101.115C87.9411 100.806 87.4539 100.077 87.4539 99.2677V80.1977ZM94.8383 93.8832L100.223 99.2677V80.1977H89.4539V99.2677L94.8383 93.8832Z" fill="black"/>
<path d="M103.935 80.8109C103.935 85.7052 100.017 89.6728 95.1851 89.6728C90.3527 89.6728 86.4353 85.7052 86.4353 80.8109C86.4353 75.9166 90.3527 71.9489 95.1851 71.9489C100.017 71.9489 103.935 75.9166 103.935 80.8109Z" fill="white"/>
<path fill-rule="evenodd" clip-rule="evenodd" d="M105.935 80.8109C105.935 86.7857 101.146 91.6728 95.1851 91.6728C89.2242 91.6728 84.4353 86.7857 84.4353 80.8109C84.4353 74.8361 89.2242 69.9489 95.1851 69.9489C101.146 69.9489 105.935 74.8361 105.935 80.8109ZM95.1851 89.6728C100.017 89.6728 103.935 85.7052 103.935 80.8109C103.935 75.9166 100.017 71.9489 95.1851 71.9489C90.3527 71.9489 86.4353 75.9166 86.4353 80.8109C86.4353 85.7052 90.3527 89.6728 95.1851 89.6728Z" fill="black"/>
<path fill-rule="evenodd" clip-rule="evenodd" d="M101.858 80.8106C101.858 84.5047 98.8946 87.5429 95.1856 87.5429C91.4766 87.5429 88.5132 84.5047 88.5132 80.8106C88.5132 77.1166 91.4766 74.0783 95.1856 74.0783C98.8946 74.0783 101.858 77.1166 101.858 80.8106ZM95.1856 85.5429C97.7661 85.5429 99.858 83.4242 99.858 80.8106C99.858 78.197 97.7661 76.0783 95.1856 76.0783C92.6051 76.0783 90.5132 78.197 90.5132 80.8106C90.5132 83.4242 92.6051 85.5429 95.1856 85.5429Z" fill="black"/>
</svg>
