<?xml version="1.0" encoding="UTF-8" standalone="no"?> <svg width="128" height="128" viewBox="0 0 128 128" fill="none" xmlns="http://www.w3.org/2000/svg">
<path d="M60.7522 19.79C60.7522 18.6855 61.6476 17.79 62.7522 17.79H64.4199C65.5245 17.79 66.4199 18.6855 66.4199 19.79V36.4695C66.4199 37.574 65.5245 38.4695 64.4199 38.4695H62.7522C61.6476 38.4695 60.7522 37.574 60.7522 36.4695V19.79Z" fill="white"/>
<path fill-rule="evenodd" clip-rule="evenodd" d="M62.7522 15.79H64.4199C66.629 15.79 68.4199 17.5809 68.4199 19.79V36.4695C68.4199 38.6786 66.629 40.4695 64.4199 40.4695H62.7522C60.5431 40.4695 58.7522 38.6786 58.7522 36.4695V19.79C58.7522 17.5809 60.5431 15.79 62.7522 15.79ZM62.7522 17.79C61.6476 17.79 60.7522 18.6855 60.7522 19.79V36.4695C60.7522 37.574 61.6476 38.4695 62.7522 38.4695H64.4199C65.5245 38.4695 66.4199 37.574 66.4199 36.4695V19.79C66.4199 18.6855 65.5245 17.79 64.4199 17.79H62.7522Z" fill="black"/>
<path d="M76.7362 66.3233L86.3465 106.355C86.8044 108.326 85.3079 110.21 83.2845 110.21H82.8535C81.5181 110.21 80.3284 109.366 79.8868 108.106L65.8061 68.0741C65.0899 66.03 66.6069 63.891 68.7728 63.891H73.6742C75.1363 63.891 76.4054 64.8991 76.7362 66.3233Z" fill="black"/>
<path d="M48.034 66.3233L38.4237 106.355C37.9659 108.326 39.4623 110.21 41.4858 110.21H41.9168C43.2522 110.21 44.4419 109.366 44.8835 108.106L58.9642 68.0741C59.6804 66.03 58.1634 63.891 55.9974 63.891H51.0961C49.6339 63.891 48.3648 64.8991 48.034 66.3233Z" fill="black"/>
<path d="M58.2675 65.214L59.6028 104.764C59.6758 106.388 61.0141 107.668 62.6402 107.668C64.2401 107.668 65.5662 106.428 65.6738 104.832L68.1301 65.3027C68.2844 63.0123 66.4682 61.0695 64.1726 61.0695H62.23C59.9695 61.0695 58.1661 62.9558 58.2675 65.214Z" fill="black"/>
<path d="M18.1294 28.348C18.1294 27.2434 19.0248 26.348 20.1294 26.348H105.051C106.155 26.348 107.051 27.2434 107.051 28.348V79.4931C107.051 80.5977 106.155 81.4931 105.051 81.4931H20.1294C19.0248 81.4931 18.1294 80.5977 18.1294 79.4931V28.348Z" fill="white"/>
<path fill-rule="evenodd" clip-rule="evenodd" d="M20.1294 24.348H105.051C107.26 24.348 109.051 26.1388 109.051 28.348V79.4931C109.051 81.7022 107.26 83.4931 105.051 83.4931H20.1294C17.9202 83.4931 16.1294 81.7022 16.1294 79.4931V28.348C16.1294 26.1388 17.9203 24.348 20.1294 24.348ZM20.1294 26.348C19.0248 26.348 18.1294 27.2434 18.1294 28.348V79.4931C18.1294 80.5977 19.0248 81.4931 20.1294 81.4931H105.051C106.155 81.4931 107.051 80.5977 107.051 79.4931V28.348C107.051 27.2434 106.155 26.348 105.051 26.348H20.1294Z" fill="black"/>
<path d="M28.5837 78.5911C28.5837 77.4865 29.4792 76.5911 30.5837 76.5911H38.9914C40.096 76.5911 40.9914 77.4865 40.9914 78.5911V79.4929C40.9914 80.5974 40.096 81.4929 38.9914 81.4929H30.5837C29.4792 81.4929 28.5837 80.5974 28.5837 79.4929V78.5911Z" fill="black"/>
<path d="M15.2188 24.4332C15.2188 23.3757 16.076 22.5184 17.1335 22.5184H110.153C111.21 22.5184 112.067 23.3757 112.067 24.4332C112.067 25.4907 111.21 26.348 110.153 26.348H17.1335C16.076 26.348 15.2188 25.4907 15.2188 24.4332Z" fill="white"/>
<path fill-rule="evenodd" clip-rule="evenodd" d="M17.1335 20.5184H110.153C112.315 20.5184 114.067 22.2711 114.067 24.4332C114.067 26.5953 112.315 28.348 110.153 28.348H17.1335C14.9715 28.348 13.2188 26.5953 13.2188 24.4332C13.2188 22.2711 14.9714 20.5184 17.1335 20.5184ZM17.1335 22.5184C16.076 22.5184 15.2188 23.3757 15.2188 24.4332C15.2188 25.4907 16.076 26.348 17.1335 26.348H110.153C111.21 26.348 112.067 25.4907 112.067 24.4332C112.067 23.3757 111.21 22.5184 110.153 22.5184H17.1335Z" fill="black"/>
<path d="M15.2188 83.4079C15.2188 82.3504 16.076 81.4931 17.1335 81.4931H110.153C111.21 81.4931 112.067 82.3504 112.067 83.4079C112.067 84.4654 111.21 85.3226 110.153 85.3226H17.1335C16.076 85.3226 15.2188 84.4654 15.2188 83.4079Z" fill="white"/>
<path fill-rule="evenodd" clip-rule="evenodd" d="M17.1335 79.4931H110.153C112.315 79.4931 114.067 81.2458 114.067 83.4079C114.067 85.5699 112.315 87.3226 110.153 87.3226H17.1335C14.9715 87.3226 13.2188 85.5699 13.2188 83.4079C13.2188 81.2458 14.9714 79.4931 17.1335 79.4931ZM17.1335 81.4931C16.076 81.4931 15.2188 82.3504 15.2188 83.4079C15.2188 84.4654 16.076 85.3226 17.1335 85.3226H110.153C111.21 85.3226 112.067 84.4654 112.067 83.4079C112.067 82.3504 111.21 81.4931 110.153 81.4931H17.1335Z" fill="black"/>
<path fill-rule="evenodd" clip-rule="evenodd" d="M33.6377 46.4107C33.6377 45.8585 34.0854 45.4107 34.6377 45.4107H42.393C42.9453 45.4107 43.393 45.8585 43.393 46.4107C43.393 46.963 42.9453 47.4107 42.393 47.4107H35.6377V57.9017H42.393C42.9453 57.9017 43.393 58.3494 43.393 58.9017C43.393 59.4539 42.9453 59.9017 42.393 59.9017H34.6377C34.0854 59.9017 33.6377 59.4539 33.6377 58.9017V46.4107Z" fill="black"/>
<path fill-rule="evenodd" clip-rule="evenodd" d="M46.5691 52.0291C46.5691 51.4769 47.0168 51.0291 47.5691 51.0291H53.2487C53.801 51.0291 54.2487 51.4769 54.2487 52.0291C54.2487 52.5814 53.801 53.0291 53.2487 53.0291H47.5691C47.0168 53.0291 46.5691 52.5814 46.5691 52.0291Z" fill="black"/>
<path fill-rule="evenodd" clip-rule="evenodd" d="M46.5691 55.5505C46.5691 54.9982 47.0168 54.5505 47.5691 54.5505H53.2487C53.801 54.5505 54.2487 54.9982 54.2487 55.5505C54.2487 56.1027 53.801 56.5505 53.2487 56.5505H47.5691C47.0168 56.5505 46.5691 56.1027 46.5691 55.5505Z" fill="black"/>
<path fill-rule="evenodd" clip-rule="evenodd" d="M34.8875 52.2476C34.8875 51.6954 35.3352 51.2476 35.8875 51.2476H40.8017C41.354 51.2476 41.8017 51.6954 41.8017 52.2476C41.8017 52.7999 41.354 53.2476 40.8017 53.2476H35.8875C35.3352 53.2476 34.8875 52.7999 34.8875 52.2476Z" fill="black"/>
<path fill-rule="evenodd" clip-rule="evenodd" d="M77.3429 50.3643C78.1828 49.2343 79.4682 48.6293 81.1062 48.6292C82.4336 48.6291 83.3873 49.2012 84.0187 49.9006C84.6254 50.5727 84.9265 51.3475 85.0541 51.8314C85.1949 52.3654 84.8761 52.9125 84.342 53.0533C83.808 53.1941 83.261 52.8753 83.1202 52.3412C83.046 52.0598 82.8638 51.606 82.5342 51.2408C82.2291 50.9029 81.7933 50.6291 81.1063 50.6292C80.0048 50.6292 79.3568 51.0075 78.948 51.5574C78.5025 52.1568 78.2392 53.0999 78.239 54.3825C78.2388 55.6203 78.5717 56.5186 79.055 57.0896C79.5236 57.6433 80.2024 57.9743 81.1062 57.9743C82.074 57.9743 82.7315 57.3436 83.1802 56.3778C83.4129 55.8769 84.0076 55.6595 84.5085 55.8922C85.0093 56.1249 85.2267 56.7196 84.994 57.2204C84.3947 58.5105 83.1997 59.9743 81.1062 59.9743C79.6613 59.9743 78.4063 59.4191 77.5283 58.3816C76.6651 57.3616 76.2388 55.9639 76.239 54.3822C76.2392 52.8782 76.5398 51.4448 77.3429 50.3643Z" fill="black"/>
<path fill-rule="evenodd" clip-rule="evenodd" d="M90.0643 43.5339C91.1714 43.6125 92.2933 44.2643 92.7626 45.4177C93.1046 46.258 93.0743 47.0125 92.8071 47.6724C92.5699 48.2581 92.1615 48.7156 91.8908 49.019C91.8848 49.0256 91.8789 49.0322 91.8731 49.0387C91.8534 49.0608 91.8327 49.0821 91.8111 49.1023L90.2973 50.5225H92.6497C93.202 50.5225 93.6497 50.9702 93.6497 51.5225C93.6497 52.0747 93.202 52.5225 92.6497 52.5225H87.7698C87.3595 52.5225 86.9909 52.2719 86.8399 51.8903C86.689 51.5088 86.7864 51.0739 87.0856 50.7931L90.4099 47.6745C90.693 47.3558 90.8638 47.1426 90.9533 46.9216C91.021 46.7545 91.06 46.5398 90.9101 46.1715C90.7738 45.8366 90.3988 45.5626 89.9226 45.5288C89.4857 45.4978 89.0432 45.6782 88.7711 46.1828C88.509 46.6689 87.9024 46.8504 87.4163 46.5883C86.9302 46.3262 86.7486 45.7196 87.0108 45.2335C87.6904 43.973 88.9178 43.4525 90.0643 43.5339Z" fill="black"/>
<path fill-rule="evenodd" clip-rule="evenodd" d="M58.8079 48.9916C59.3601 48.9916 59.8079 49.4393 59.8079 49.9916V58.9742C59.8079 59.5265 59.3601 59.9742 58.8079 59.9742C58.2556 59.9742 57.8079 59.5265 57.8079 58.9742V49.9916C57.8079 49.4393 58.2556 48.9916 58.8079 48.9916Z" fill="black"/>
<path fill-rule="evenodd" clip-rule="evenodd" d="M57.8079 53.8592C57.808 51.3827 60.2418 49.2091 63.0835 49.6912C64.3588 49.9075 65.1673 50.7138 65.6358 51.5395C66.092 52.3433 66.2663 53.2234 66.2918 53.8161C66.2925 53.8305 66.2928 53.8449 66.2928 53.8593V59.0148C66.2928 59.5671 65.8451 60.0148 65.2928 60.0148C64.7405 60.0148 64.2928 59.5671 64.2928 59.0148V53.883C64.2748 53.5411 64.1622 52.995 63.8964 52.5266C63.6379 52.071 63.2782 51.7528 62.749 51.663C61.0792 51.3797 59.8079 52.67 59.8079 53.8592C59.8078 54.4115 59.3601 54.8592 58.8078 54.8592C58.2555 54.8592 57.8078 54.4114 57.8079 53.8592Z" fill="black"/>
<path fill-rule="evenodd" clip-rule="evenodd" d="M64.2925 53.8592C64.2926 51.3827 66.7264 49.2091 69.5681 49.6912C70.8434 49.9075 71.6519 50.7138 72.1204 51.5395C72.5766 52.3433 72.7509 53.2234 72.7765 53.8161C72.7771 53.8305 72.7774 53.8449 72.7774 53.8593V59.0148C72.7774 59.5671 72.3297 60.0148 71.7774 60.0148C71.2251 60.0148 70.7774 59.5671 70.7774 59.0148V53.883C70.7594 53.5411 70.6468 52.995 70.381 52.5266C70.1225 52.071 69.7629 51.7528 69.2336 51.663C67.5638 51.3797 66.2925 52.67 66.2925 53.8592C66.2925 54.4115 65.8447 54.8592 65.2924 54.8592C64.7402 54.8592 64.2925 54.4114 64.2925 53.8592Z" fill="black"/>
</svg>
