<?xml version="1.0" encoding="utf-8"?>
<!-- Generator: Adobe Illustrator 22.1.0, SVG Export Plug-In . SVG Version: 6.00 Build 0)  -->
<svg version="1.1" id="Layer_1" xmlns="http://www.w3.org/2000/svg" xmlns:xlink="http://www.w3.org/1999/xlink" x="0px" y="0px"
	 viewBox="0 0 32 32" style="enable-background:new 0 0 32 32;" xml:space="preserve">
<title>mathworks</title>
<path d="M5.8,21.7c-1.6-1.2-3.6-2.6-5.8-4.2l7.7-3l3.2,2.4C8.5,19.7,7,20.7,5.8,21.7L5.8,21.7z M27,13.3c-0.6-1.6-1-3.2-1.6-4.8
	c-0.6-1.8-1.2-3.4-2.2-4.8c-0.4-0.6-1.2-2-2.2-2c-0.2,0-0.4,0.2-0.6,0.2c-0.6,0.2-1.4,1.4-1.6,2.2c-0.6,1-1.8,2.6-2.6,3.6
	c-0.2,0.4-0.6,0.8-0.8,1c-0.6,0.4-1.2,1-2,1.4c-0.2,0-0.4,0.2-0.6,0.2c-0.6,0-1,0.4-1.4,0.6c-0.6,0.6-1.2,1.4-1.8,2
	c0,0.2-0.2,0.4-0.4,0.6l3,2.2c2.2-2.6,4.8-5.2,6.6-10.1c0,0-0.6,5.4-5.4,11.1c-3,3.4-5.4,5.2-5.8,5.6c0,0,0.8-0.2,1.6,0.2
	c1.6,0.6,2.4,2.8,3,4.4c0.4,1.2,1,2.2,1.4,3.4c1.6-0.4,2.6-1,3.6-2c1-1,2-2.2,3-3.2c1.8-2.2,4-5,6.8-3.6c0.4,0.2,1,0.6,1.2,0.8
	c0.6,0.4,1,0.8,1.6,1.4c1,0.8,1.4,1.4,2.2,1.8C30,21.5,28.6,17.5,27,13.3L27,13.3z"/>
</svg>
